<svg xmlns="http://www.w3.org/2000/svg" width="1152" height="648" viewBox="0 0 1152 648" version="1.1"><path d="M 704.500 21.348 L 696.500 22.500 676.500 42.508 C 665.500 53.512, 653.933 64.312, 650.795 66.508 C 647.461 68.841, 645.279 71.053, 645.545 71.832 C 645.795 72.564, 646 83.672, 646 96.516 L 646 119.869 652.077 117.817 C 659.451 115.326, 685.319 102.344, 697 95.272 C 710.536 87.076, 726.810 75.350, 740.665 63.810 C 756.175 50.892, 778 28.887, 778 26.167 C 778 24.353, 776.946 24.193, 761.250 23.637 C 752.038 23.311, 741.575 22.576, 738 22.003 C 727.814 20.373, 713.249 20.088, 704.500 21.348 M 159.500 37.614 C 157.850 37.776, 151.631 38.199, 145.680 38.555 C 138.119 39.007, 134.707 39.600, 134.353 40.523 C 134.074 41.250, 137.123 46.267, 141.129 51.672 C 155.545 71.123, 157.218 73.507, 159.237 77.474 C 161.627 82.172, 171.580 92.223, 179.923 98.364 C 185.717 102.629, 185.805 102.656, 191.843 101.944 C 196.368 101.410, 198.896 100.467, 201.713 98.260 C 203.796 96.629, 210 92.248, 215.500 88.524 C 221 84.801, 225.677 81.596, 225.893 81.401 C 226.744 80.635, 204.484 56.431, 188.587 40.838 C 184.674 37, 184.674 37, 173.587 37.160 C 167.489 37.248, 161.150 37.452, 159.500 37.614 M 491 150.062 C 483.750 152.534, 461.791 158, 459.109 158 C 456.330 158, 456.327 161.081, 459.104 163.595 C 461.088 165.391, 463.500 165.516, 501.354 165.784 C 531.196 165.996, 542.077 165.760, 543.750 164.865 C 545.689 163.829, 546 162.855, 546 157.831 L 546 152 522.622 152 C 500.773 152, 499.154 151.875, 497.872 150.094 C 496.526 148.224, 496.395 148.223, 491 150.062 M 646 158.481 C 646 164.373, 646.204 165.012, 648.250 165.508 C 649.487 165.809, 670.750 165.930, 695.500 165.778 L 740.500 165.500 740.796 158.750 L 741.091 152 693.546 152 L 646 152 646 158.481 M 435.637 266.465 C 430.708 268.222, 426.565 272.202, 423.871 277.767 C 420.884 283.937, 421.625 294.025, 425.724 303 C 427.356 306.575, 429.393 310.082, 430.251 310.793 C 431.638 311.944, 431.707 311.670, 430.881 308.293 C 426.486 290.313, 428.448 280.397, 437.396 275.378 C 448.240 269.295, 458.208 272.505, 467.250 284.990 C 469 287.407, 469 287.407, 469 284.664 C 469 278.012, 460.813 268.459, 453.142 266.161 C 448.022 264.627, 440.423 264.759, 435.637 266.465 M 369.487 275.172 C 368.944 276.366, 367.230 278.278, 365.677 279.422 C 362.873 281.486, 362.176 281.503, 260.677 282 L 158.500 282.500 158.813 288 C 158.986 291.025, 159.356 294.294, 159.635 295.264 C 160.117 296.937, 165.394 297.014, 261.499 296.764 C 362.769 296.500, 362.856 296.498, 365.677 294.395 C 369.957 291.205, 371.991 286.906, 372.672 279.611 C 373.168 274.302, 373.012 273, 371.882 273 C 371.108 273, 370.030 273.977, 369.487 275.172 M 485.420 280.116 C 485.818 281.427, 486.392 285.704, 486.695 289.621 C 487.414 298.913, 485.337 305.297, 479.470 311.822 C 475.296 316.464, 462.539 325.671, 455 329.481 C 449.044 332.491, 448.835 332.857, 451.226 336.091 C 452.408 337.691, 454.027 339, 454.823 339 C 457.668 339, 476.835 326.711, 482.711 321.118 C 490.600 313.612, 493.329 306.837, 492.829 296 C 492.576 290.505, 491.817 287.176, 489.992 283.545 C 487.313 278.217, 484.116 275.820, 485.420 280.116 M 54.154 301 C 54.164 314.953, 60.844 339.586, 68.187 352.750 C 76.490 367.634, 80.333 373.441, 86.875 380.989 C 102.921 399.501, 119.251 412.202, 139.507 421.923 C 155.785 429.736, 166.241 432.936, 191 437.683 C 202.474 439.883, 239.259 439.844, 253.500 437.617 C 286.720 432.422, 316.141 419.484, 341.533 398.906 C 349.830 392.183, 367 374.479, 367 372.649 C 367 371.948, 365.641 370.072, 363.979 368.480 L 360.958 365.586 352.729 373.612 C 336.744 389.202, 319.274 401.236, 302 408.556 C 297.325 410.538, 292.055 412.810, 290.290 413.607 C 285.028 415.982, 265.314 420.782, 253 422.687 C 237.042 425.155, 206.680 425.158, 191 422.691 C 152.713 416.669, 125.446 403.568, 98.888 378.433 C 77.492 358.184, 64.368 335.027, 56.419 303.500 L 54.150 294.500 54.154 301 M 394.082 314.167 C 393.918 321.517, 403.265 338, 407.597 338 C 408.919 338, 410 337.761, 410 337.468 C 410 337.175, 407.564 333.460, 404.587 329.211 C 401.610 324.962, 398.047 319.014, 396.669 315.993 C 394.164 310.500, 394.164 310.500, 394.082 314.167 M 494.169 343.580 C 494.461 346.113, 495.013 346.542, 498.814 347.186 C 501.187 347.589, 504.519 348.611, 506.218 349.459 C 511.101 351.895, 513.192 351.512, 512.816 348.250 C 512.416 344.769, 507.762 342.341, 499.669 341.390 C 493.839 340.706, 493.839 340.706, 494.169 343.580 M 532.129 342.001 C 526.410 343.351, 525.417 345.318, 524.188 357.721 C 522.923 370.492, 519.934 380.302, 513.494 392.818 C 509.213 401.137, 509.213 401.137, 511.449 403.736 C 512.804 405.311, 514.288 406.103, 515.217 405.747 C 516.860 405.116, 526.512 386.156, 527.305 382 C 527.568 380.625, 528.506 375.900, 529.391 371.500 C 530.276 367.100, 531 361.207, 531 358.405 C 531 352.751, 532.399 350.803, 537.815 348.915 C 540.371 348.024, 541 347.252, 541 345.009 C 541 341.099, 538.926 340.396, 532.129 342.001 M 415.254 355.123 C 412.176 358.124, 408.662 362.975, 406.754 366.856 C 403.729 373.007, 403.502 374.177, 403.531 383.486 C 403.560 392.652, 403.837 394.084, 406.799 400.399 C 408.578 404.194, 410.325 407.009, 410.679 406.654 C 411.034 406.300, 410.734 402.221, 410.014 397.591 C 409.294 392.961, 408.997 386.996, 409.354 384.336 C 410.182 378.173, 414.918 368.477, 419.771 363.008 L 423.544 358.756 433.522 369.988 C 475.727 417.497, 475.267 417, 476.931 417 C 479.978 417, 478.940 413.622, 474.368 408.660 C 471.691 405.755, 466.575 400.048, 463 395.979 C 452.785 384.351, 448.808 379.867, 444.406 375.014 C 442.154 372.531, 437.713 367.575, 434.538 364 C 425.838 354.204, 421.808 350, 421.121 350.003 C 420.779 350.005, 418.139 352.309, 415.254 355.123 M 546.766 358.139 C 545.676 365.571, 550.652 381.564, 557.447 392.467 C 571.715 415.360, 598.427 432.073, 630 437.863 C 640.061 439.708, 650.353 440.064, 665 439.072 C 690.129 437.371, 709.039 430.913, 730.062 416.851 C 739.370 410.625, 754 397.069, 754 394.671 C 754 393.958, 752.671 392.101, 751.046 390.544 L 748.093 387.715 742.431 392.889 C 729.600 404.616, 711.409 414.920, 695.556 419.442 C 682.374 423.201, 662.919 426.113, 652.500 425.886 C 633.786 425.478, 606.244 418.967, 596.071 412.545 C 593.854 411.145, 591.781 410, 591.465 410 C 591.149 410, 588.316 408.252, 585.170 406.116 C 576.263 400.067, 564.718 388.738, 559.253 380.682 C 554.640 373.884, 549.020 361.924, 548.985 358.829 C 548.976 358.098, 548.584 356.892, 548.113 356.149 C 547.512 355.200, 547.111 355.793, 546.766 358.139 M 368 399.250 C 368 400.029, 368.298 400.965, 368.663 401.329 C 369.027 401.694, 369.474 403.351, 369.656 405.011 C 370.787 415.347, 383.470 430.028, 397.004 436.668 C 410.278 443.181, 419.346 445, 438.541 445 C 447.429 445, 456.006 444.606, 457.601 444.125 C 459.195 443.643, 462.975 442.696, 466 442.020 C 469.025 441.344, 475.021 439.038, 479.323 436.896 C 483.626 434.753, 487.747 433, 488.480 433 C 489.214 433, 491.705 435.259, 494.016 438.020 L 498.219 443.039 519.360 442.770 C 540.500 442.500, 540.500 442.500, 540.816 439.750 C 541.133 437, 541.133 437, 522.816 436.931 C 512.742 436.893, 503.224 436.695, 501.665 436.490 C 498.898 436.127, 497.023 434.511, 490.131 426.551 C 487.356 423.346, 486.475 422.859, 485.131 423.790 C 476.315 429.895, 462.362 435.403, 450.452 437.480 C 415.351 443.602, 380.245 428.211, 371.709 402.959 C 370.264 398.683, 368 396.419, 368 399.250" stroke="none" fill="#78b2c4" fill-rule="evenodd"/><path d="M 185.507 36.826 C 185.235 37.098, 186.697 38.976, 188.756 40.999 C 208.742 60.630, 226.856 80.827, 225.371 81.825 C 212.061 90.765, 203.906 96.478, 201.500 98.548 L 198.500 101.129 208.500 100.560 C 238.583 98.851, 244.205 98.774, 257.830 99.884 C 281.348 101.801, 302.268 104.251, 315 106.581 C 338.201 110.825, 379.585 122.601, 395.500 129.487 C 398.250 130.676, 402.525 132.504, 405 133.549 C 415.179 137.843, 433.491 147.286, 444.516 153.925 C 450.977 157.816, 456.430 161, 456.632 161 C 456.834 161, 457 158.885, 457 156.301 C 457 151.631, 456.927 151.529, 445.250 139.931 C 407.398 102.334, 360.982 74.604, 306.500 57.038 C 287.053 50.768, 285.262 50.245, 275.500 47.979 C 260.804 44.569, 258.824 44.155, 251.500 42.961 C 247.650 42.333, 242.700 41.435, 240.500 40.965 C 232.175 39.186, 186.579 35.755, 185.507 36.826 M 585.095 44.736 C 581.492 66.110, 574.396 81.443, 562.179 94.251 C 548.352 108.747, 531.127 116.809, 508.750 119.258 L 498 120.435 498 128.717 C 498 133.273, 498.371 137, 498.825 137 C 501.392 137, 531.842 125.259, 545.500 119.003 C 565.682 109.758, 579.635 102.048, 602.110 87.723 C 632.300 68.481, 645.772 58.758, 646.552 55.648 C 646.850 54.463, 646.960 49.895, 646.797 45.497 L 646.500 37.500 616.452 37.236 L 586.403 36.971 585.095 44.736 M 641.335 73.370 C 633.484 79.971, 586.166 109.697, 570.500 117.870 C 553.189 126.901, 523.663 139.380, 505.257 145.444 C 497.765 147.912, 497.108 148.334, 498.043 150.080 C 499.011 151.890, 500.418 152, 522.535 152 L 546 152 546 157.640 C 546 161.838, 545.553 163.619, 544.250 164.608 C 543.181 165.419, 542.987 165.949, 543.750 165.968 C 544.739 165.993, 545.001 182.935, 545.003 247.250 C 545.007 325.045, 545.714 363.936, 547.010 357.500 C 547.581 354.662, 547.705 354.803, 549.296 360.117 C 553.154 372.997, 560.681 384.702, 571.754 395.044 C 578.573 401.412, 589.891 410, 591.465 410 C 591.781 410, 593.854 411.145, 596.071 412.545 C 606.244 418.967, 633.786 425.478, 652.500 425.886 C 662.919 426.113, 682.374 423.201, 695.556 419.442 C 711.524 414.887, 730.131 404.307, 742.627 392.676 L 748.188 387.499 736.001 377.287 L 723.814 367.075 718.657 370.965 C 712.061 375.940, 702.152 380.619, 695.122 382.078 C 692.093 382.707, 685.539 383.040, 680.558 382.818 C 672.960 382.480, 670.664 381.959, 666.312 379.582 C 658.840 375.503, 655.170 371.503, 651.095 363 L 647.500 355.500 647.500 260.250 C 647.500 207.863, 647.163 165, 646.750 165 C 646.337 165, 646 162.075, 646 158.500 L 646 152 693.439 152 L 740.879 152 741.189 140.750 C 741.360 134.563, 741.363 127.362, 741.195 124.750 L 740.890 120 695.886 120 C 666.138 120, 651.091 119.661, 651.500 119 C 652.271 117.752, 651.793 117.748, 648.565 118.975 C 646 119.950, 646 119.950, 646 96.034 C 646 82.644, 645.597 71.869, 645.085 71.552 C 644.581 71.241, 642.894 72.059, 641.335 73.370 M 207.500 127.084 C 200.900 127.520, 193.925 128.328, 192 128.879 C 190.075 129.429, 185.575 130.384, 182 131 C 131.086 139.773, 81.659 179.643, 62.988 227 C 55.549 245.867, 53.949 254.601, 53.463 279 C 53.238 290.275, 53.391 298.414, 53.802 297.087 C 54.402 295.150, 54.923 296.334, 56.444 303.087 C 63.120 332.721, 77.431 358.126, 98.888 378.433 C 125.446 403.568, 152.713 416.669, 191 422.691 C 206.680 425.158, 237.042 425.155, 253 422.687 C 265.314 420.782, 285.028 415.982, 290.290 413.607 C 292.055 412.810, 297.325 410.538, 302 408.556 C 319.214 401.261, 340.254 386.608, 354.760 371.812 L 361.020 365.426 356.260 361.789 C 353.642 359.788, 350.178 356.767, 348.563 355.076 C 346.948 353.384, 345.023 352, 344.286 352 C 343.549 352, 338.906 356.040, 333.969 360.977 C 324.774 370.172, 310.595 380.515, 302.210 384.144 C 287.417 390.545, 276.639 393.476, 262.207 395.022 C 239.847 397.416, 217.354 391.756, 201.500 379.746 C 184.180 366.625, 172.688 347.273, 165.129 318.500 C 161.110 303.200, 157.752 284.503, 158.709 282.750 C 158.934 282.337, 204.700 282, 260.411 282 C 361.704 282, 361.704 282, 365.102 279.725 C 366.971 278.474, 368.944 276.449, 369.487 275.225 C 370.030 274.001, 371.112 273, 371.892 273 C 373.081 273, 373.205 270.677, 372.659 258.650 C 372.300 250.757, 371.318 240.294, 370.478 235.400 C 362.825 190.853, 333.326 155.052, 290 137.729 C 282.530 134.742, 277.084 133.256, 258 128.996 C 253.353 127.958, 227.807 125.913, 222.500 126.153 C 220.850 126.228, 214.100 126.647, 207.500 127.084 M 209.500 160.955 C 183.213 166.644, 165.422 188.626, 161.878 219.797 C 160.431 232.522, 162.057 239.253, 167.703 243.907 C 174.911 249.848, 176.255 250, 221.643 250 C 265.832 250, 268.274 249.761, 275.366 244.731 C 279.189 242.020, 282.978 233.678, 282.990 227.943 C 283.005 220.989, 279.413 202.976, 276.660 196.201 C 273.359 188.078, 269.358 182.473, 261.994 175.655 C 250.808 165.299, 240.091 160.951, 224.500 160.446 C 218.450 160.250, 211.700 160.479, 209.500 160.955 M 424.561 255.603 C 421.294 256.393, 415.894 258.573, 412.561 260.447 C 394.518 270.590, 388.565 285.722, 392.671 311 C 393.116 313.745, 393.388 314.093, 393.930 312.615 C 394.480 311.113, 395.064 311.795, 396.796 315.962 C 397.992 318.840, 401.452 324.737, 404.485 329.065 C 407.518 333.394, 410 337.175, 410 337.468 C 410 337.761, 408.957 338, 407.683 338 C 404.235 338, 388.649 347.673, 381.408 354.307 C 376.986 358.358, 374.076 362.129, 371.785 366.778 C 368.722 372.993, 368.477 374.248, 368.163 385.383 C 367.877 395.482, 368.070 397.460, 369.413 398.211 C 370.286 398.700, 371 399.780, 371 400.613 C 371 403.813, 376.614 413.371, 381.447 418.397 C 384.226 421.287, 389.031 425.332, 392.124 427.384 C 402.298 434.135, 420.650 439, 435.941 439 C 451.537 439, 472.550 432.502, 485.131 423.790 C 486.475 422.859, 487.356 423.346, 490.131 426.551 C 499.576 437.460, 496.660 436.461, 520.095 436.825 L 541 437.150 541 432.653 C 541 428.339, 540.847 428.105, 537.250 426.938 C 534.587 426.074, 529.985 422.148, 521.375 413.394 L 509.250 401.067 513.512 392.783 C 519.926 380.317, 522.909 370.508, 524.293 357.331 C 525.413 346.658, 525.727 345.546, 528.121 343.759 C 529.813 342.495, 532.531 341.757, 535.863 341.656 C 540.998 341.500, 540.998 341.500, 540.999 337.357 C 541 334.501, 540.509 333.025, 539.418 332.607 C 537.331 331.806, 501.142 331.822, 497.125 332.625 C 494.309 333.188, 494 333.612, 494 336.904 C 494 340.557, 494 340.557, 500.992 341.658 C 509.334 342.972, 513 345.068, 513 348.523 C 513 350.141, 512.437 351, 511.378 351 C 510.110 351, 510.006 351.302, 510.903 352.383 C 512.351 354.128, 509.648 371.486, 506.991 377.500 C 506.505 378.600, 505.128 381.863, 503.930 384.750 C 502.733 387.637, 501.472 389.990, 501.127 389.978 C 500.782 389.966, 490.375 378.525, 478 364.554 C 465.625 350.583, 455.022 339.118, 454.438 339.076 C 453.854 339.034, 452.408 337.691, 451.226 336.091 C 448.835 332.857, 449.044 332.491, 455 329.481 C 462.539 325.671, 475.296 316.464, 479.470 311.822 C 486.769 303.704, 487.941 297.521, 485.630 279.328 C 484.990 274.288, 475.799 265.100, 465.817 259.521 C 456.524 254.327, 437.361 252.507, 424.561 255.603 M 435.637 266.465 C 430.708 268.222, 426.565 272.202, 423.871 277.767 C 420.884 283.937, 421.625 294.025, 425.724 303 C 428.583 309.261, 432.894 314.853, 431.422 310.391 C 431.078 309.351, 432.640 311.325, 434.891 314.779 C 437.143 318.232, 439.642 321.309, 440.445 321.617 C 444.379 323.127, 462.646 309.429, 466.035 302.428 C 468.225 297.905, 468.870 291.483, 467.585 287 C 467.041 285.100, 467.121 284.860, 467.919 286 C 468.761 287.202, 468.972 286.946, 468.985 284.710 C 469.021 278.039, 460.848 268.469, 453.142 266.161 C 448.022 264.627, 440.423 264.759, 435.637 266.465 M 415.254 355.123 C 412.176 358.124, 408.662 362.975, 406.754 366.856 C 403.729 373.007, 403.502 374.177, 403.531 383.486 C 403.560 392.779, 403.806 394.004, 406.939 400.500 C 409.218 405.227, 410.454 406.912, 410.742 405.689 C 411.075 404.279, 411.777 404.834, 413.906 408.189 C 417.759 414.262, 430.443 422, 436.546 422 C 437.959 422, 441.156 422.514, 443.652 423.143 C 447.118 424.015, 449.879 423.992, 455.345 423.045 C 463.531 421.626, 475 418.009, 475 416.846 C 475 416.415, 475.671 416.320, 476.492 416.635 C 477.349 416.964, 478.249 416.514, 478.610 415.575 C 479.031 414.477, 477.642 412.213, 474.368 408.660 C 471.691 405.755, 466.575 400.048, 463 395.979 C 452.785 384.351, 448.808 379.867, 444.406 375.014 C 442.154 372.531, 437.713 367.575, 434.538 364 C 425.838 354.204, 421.808 350, 421.121 350.003 C 420.779 350.005, 418.139 352.309, 415.254 355.123" stroke="none" fill="#2369a1" fill-rule="evenodd"/></svg>